<svg xmlns="http://www.w3.org/2000/svg" width="1024" height="1024" viewBox="0 0 1024 1024">
<g>
<path d="M 487.10 529.28 C484.64,530.73 481.66,530.98 467.85,530.86 C458.86,530.79 450.48,530.53 449.23,530.29 C448.42,530.14 447.74,530.06 447.16,529.77 C443.93,528.15 443.94,520.02 444.06,455.98 C444.06,453.84 444.07,451.64 444.07,449.38 C444.15,407.64 443.90,372.73 443.51,371.79 C442.95,370.41 444.29,369.34 450.43,366.31 C455.21,363.94 457.86,362.07 457.55,361.27 C457.28,360.57 459.33,362.34 462.11,365.21 L 467.15 370.41 L 467.04 403.47 C466.95,430.93 467.17,436.86 468.38,438.51 C469.79,440.43 471.23,440.51 511.43,440.78 L 553.03 441.06 L 555.54 438.55 L 558.05 436.04 L 557.90 415.77 C557.82,404.62 557.48,389.97 557.13,383.22 L 556.50 370.94 L 562.50 364.72 C565.80,361.30 567.87,359.30 567.11,360.27 C567.00,360.41 566.91,360.53 566.81,360.64 C566.39,361.16 566.11,361.51 566.12,361.86 C566.15,362.67 567.83,363.43 573.30,366.17 L 580.10 369.57 L 580.02 446.95 C579.97,506.25 579.66,524.93 578.72,526.91 C577.53,529.40 577.10,529.51 567.74,529.79 C562.38,529.94 557.90,529.94 557.78,529.79 C557.67,529.63 557.33,514.65 557.03,496.50 L 556.50 463.50 L 512.50 463.50 L 512.24 493.13 L 511.97 522.76 L 508.97 523.36 C507.32,523.69 502.38,524.26 497.99,524.62 C493.06,525.03 490.00,525.72 490.00,526.43 C490.00,527.06 488.69,528.34 487.10,529.28 ZM 498.00 617.00 L 498.00 743.00 L 391.50 742.52 L 497.00 741.98 L 497.00 708.50 L 467.00 709.10 L 466.88 687.30 C466.81,675.31 466.84,655.29 466.94,642.82 C466.96,640.59 466.99,638.54 467.02,636.67 C467.17,625.50 467.24,620.32 464.70,617.94 C462.49,615.87 458.31,615.91 450.52,615.97 C449.01,615.99 447.36,616.00 445.57,616.00 C435.98,616.00 426.98,615.56 425.57,615.02 L 423.00 614.05 L 423.00 597.52 C423.00,583.19 422.79,581.00 421.43,581.00 C420.10,581.00 419.90,579.52 420.11,570.99 L 420.36 560.98 L 453.29 561.28 C482.99,561.55 486.34,561.75 487.47,563.29 C488.16,564.23 489.23,565.00 489.86,565.00 C490.49,565.00 491.00,565.38 491.00,565.84 C491.00,567.67 496.49,569.00 504.05,569.00 L 512.00 569.00 L 512.00 615.91 L 519.25 616.21 C523.20,616.37 525.01,616.48 525.90,617.00 ZM 667.00 512.17 C667.00,537.37 666.85,558.00 666.67,558.00 C665.82,558.00 662.00,553.08 660.08,549.50 C658.90,547.30 656.67,543.47 655.12,541.00 C650.37,533.44 626.82,494.76 624.37,490.50 C620.06,483.03 617.98,479.50 617.01,478.00 C616.47,477.17 613.44,472.23 610.27,467.00 L 604.50 457.50 L 604.59 424.00 C604.67,395.93 604.99,383.02 605.61,383.00 C605.68,383.00 607.03,384.91 608.61,387.24 C610.20,389.57 616.84,398.68 623.38,407.49 C629.91,416.29 637.92,427.10 641.17,431.50 C644.43,435.90 651.57,445.54 657.05,452.92 L 667.00 466.33 ZM 360.51 554.75 C359.63,555.99 358.48,557.00 357.95,557.00 C357.36,557.00 357.00,539.86 357.00,511.99 L 357.00 466.98 L 360.67 461.74 C362.69,458.86 365.55,454.92 367.03,453.00 C369.78,449.41 382.85,431.75 398.47,410.50 C417.04,385.25 417.35,384.88 418.47,386.77 C419.12,387.87 419.50,401.18 419.50,423.00 L 419.50 457.50 L 403.00 484.89 C393.92,499.95 385.50,513.90 384.27,515.89 C383.05,517.87 381.13,521.08 380.01,523.00 C378.89,524.92 377.55,527.17 377.02,528.00 C376.50,528.83 372.93,534.67 369.09,541.00 C365.26,547.33 361.40,553.51 360.51,554.75 ZM 526.00 617.06 C526.57,617.45 526.72,618.04 526.85,619.00 C527.04,620.38 527.57,621.73 528.02,622.01 C528.83,622.51 543.05,654.25 545.48,661.00 C546.18,662.92 550.85,673.80 555.87,685.17 C560.89,696.54 565.00,706.58 565.00,707.47 C565.00,708.91 562.96,709.05 546.00,708.79 L 527.00 708.50 L 527.00 741.98 L 632.50 742.52 L 526.00 743.00 Z" fill="rgb(20,111,192)"/>
<path d="M 566.17 362.08 C566.14,362.01 566.12,361.93 566.12,361.86 C566.11,361.51 566.39,361.16 566.81,360.64 C566.91,360.53 567.00,360.41 567.11,360.27 C567.87,359.30 565.80,361.30 562.50,364.72 L 556.50 370.94 L 557.13 383.22 C557.48,389.97 557.82,404.62 557.90,415.77 L 557.92 417.89 L 557.66 404.24 C557.32,386.86 556.70,372.32 556.27,371.92 C555.85,371.51 553.18,372.69 550.34,374.53 C545.27,377.81 540.05,384.28 519.10,413.25 C515.61,418.06 512.40,422.00 511.94,422.00 C511.21,422.00 502.33,410.18 489.11,391.65 C486.70,388.27 483.13,383.53 481.19,381.12 C477.47,376.52 469.31,370.69 467.85,371.59 C467.52,371.80 467.22,379.51 467.08,390.45 L 467.15 370.41 L 462.11 365.21 C459.33,362.34 457.28,360.57 457.55,361.27 C457.58,361.34 457.58,361.41 457.57,361.48 C456.92,360.21 455.41,357.75 453.59,355.02 C451.00,351.16 447.55,345.08 445.93,341.50 C440.74,330.06 440.03,324.86 440.01,298.25 L 440.00 274.00 L 421.00 274.00 L 421.00 262.00 L 511.89 262.00 C593.85,262.00 602.85,262.16 603.39,263.58 C603.73,264.45 604.00,267.15 604.00,269.58 L 604.00 274.00 L 584.50 274.00 L 584.83 291.25 C585.18,309.47 583.89,326.46 581.58,334.09 C579.60,340.64 574.44,350.50 569.75,356.71 C567.94,359.12 566.51,361.27 566.17,362.08 ZM 526.00 617.06 L 526.00 617.00 L 525.90 617.00 C525.01,616.48 523.20,616.37 519.25,616.21 L 512.00 615.91 L 512.00 569.00 L 504.05 569.00 C496.73,569.00 491.35,567.75 491.02,566.01 C492.99,567.89 497.72,568.00 513.51,568.00 L 533.87 568.00 L 534.50 561.50 L 603.50 561.50 L 604.00 635.40 L 604.50 709.29 L 609.00 710.64 C616.13,712.78 621.14,716.14 625.21,721.51 C629.53,727.23 632.00,733.66 632.00,739.18 L 632.00 742.52 L 527.00 741.98 L 527.00 708.50 L 546.00 708.79 C562.96,709.05 565.00,708.91 565.00,707.47 C565.00,706.58 560.89,696.54 555.87,685.17 C550.85,673.80 546.18,662.92 545.48,661.00 C543.05,654.25 528.83,622.51 528.02,622.01 C527.57,621.73 527.04,620.38 526.85,619.00 C526.72,618.04 526.57,617.45 526.00,617.06 ZM 503.76 372.97 C515.63,374.97 527.42,372.99 539.91,366.91 C548.25,362.84 561.13,350.13 565.65,341.50 C571.59,330.15 573.00,321.46 573.00,296.31 L 573.00 274.00 L 452.00 274.00 L 452.00 297.79 C452.00,324.58 452.64,328.65 458.72,340.41 C463.11,348.89 474.81,361.04 483.00,365.62 C489.24,369.12 496.82,371.80 503.76,372.97 ZM 360.51 554.75 C361.40,553.51 365.26,547.33 369.09,541.00 C372.93,534.67 376.50,528.83 377.02,528.00 C377.55,527.17 378.89,524.92 380.01,523.00 C381.13,521.08 383.05,517.87 384.27,515.89 C385.50,513.90 393.92,499.95 403.00,484.89 L 419.50 457.50 L 419.50 423.00 C419.50,401.18 419.12,387.87 418.47,386.77 C417.90,385.82 417.54,385.44 414.93,388.55 C417.96,384.72 419.55,383.00 420.00,383.00 C420.52,383.00 420.93,420.18 420.97,471.23 C421.02,519.75 421.38,559.77 421.78,560.17 C422.17,560.56 437.47,561.02 455.76,561.19 C486.36,561.48 489.07,561.64 489.58,563.24 C489.80,563.95 490.02,564.55 490.30,565.07 C490.16,565.02 490.02,565.00 489.86,565.00 C489.23,565.00 488.16,564.23 487.47,563.29 C486.34,561.75 482.99,561.55 453.29,561.28 L 420.36 560.98 L 420.31 562.92 C420.29,562.27 420.26,561.86 420.21,561.75 C420.03,561.34 405.73,561.00 388.44,561.00 L 357.00 561.00 L 357.00 513.99 C357.02,540.68 357.38,557.00 357.95,557.00 C358.48,557.00 359.63,555.99 360.51,554.75 ZM 681.42 853.05 C676.22,855.09 673.36,855.42 658.00,855.78 C648.38,856.00 640.16,855.84 639.75,855.42 C639.34,855.01 639.00,840.57 639.00,823.33 L 639.00 792.00 L 657.32 792.00 C678.49,792.00 682.27,792.85 689.49,799.20 C696.38,805.26 699.26,811.66 699.77,822.00 C700.12,828.97 699.80,831.53 698.03,836.22 C695.16,843.86 689.03,850.07 681.42,853.05 ZM 444.62 854.91 C437.81,856.09 410.76,856.42 409.67,855.33 C409.30,854.97 409.00,840.57 409.00,823.33 L 409.00 792.00 L 427.75 792.00 C446.31,792.00 446.56,792.03 452.56,794.87 C466.69,801.56 472.87,816.55 468.46,833.48 C465.61,844.43 456.20,852.89 444.62,854.91 ZM 744.88 854.95 C737.83,856.09 711.72,856.39 710.67,855.33 C710.30,854.97 710.00,840.57 710.00,823.33 L 710.00 792.00 L 747.68 792.00 L 753.82 795.07 C764.73,800.52 769.99,809.39 770.11,822.54 C770.18,830.73 769.52,833.89 766.42,840.09 C762.28,848.37 755.17,853.28 744.88,854.95 ZM 667.00 513.67 L 667.00 561.00 L 635.25 561.00 L 603.50 561.00 L 603.67 475.25 C603.83,389.08 603.78,382.97 604.48,382.88 C604.53,382.87 604.59,382.90 604.65,382.93 C604.72,382.97 604.79,383.00 604.86,383.00 C604.99,383.00 605.19,383.13 605.45,383.35 C604.93,385.58 604.66,398.56 604.59,424.00 L 604.50 457.50 L 610.27 467.00 C613.44,472.23 616.47,477.17 617.01,478.00 C617.98,479.50 620.06,483.03 624.37,490.50 C626.82,494.76 650.37,533.44 655.12,541.00 C656.67,543.47 658.90,547.30 660.08,549.50 C662.00,553.08 665.82,558.00 666.67,558.00 C666.85,558.00 666.99,538.19 667.00,513.67 ZM 552.24 853.16 C547.83,855.33 546.06,855.51 527.00,855.84 C515.72,856.03 506.16,855.84 505.75,855.43 C505.34,855.01 505.00,840.54 505.00,823.28 L 505.00 791.89 L 548.66 792.50 L 552.44 795.38 C556.70,798.63 559.00,803.24 559.00,808.50 C559.00,813.06 556.80,818.33 554.11,820.21 C552.04,821.66 552.07,821.72 555.90,824.80 C558.91,827.22 560.05,829.05 561.00,832.99 C563.27,842.48 560.37,849.16 552.24,853.16 ZM 240.45 853.00 C235.75,855.38 234.50,855.52 215.50,855.83 C204.50,856.02 195.16,855.83 194.75,855.42 C194.34,855.00 194.00,840.57 194.00,823.33 L 194.00 792.00 L 214.03 792.00 C236.02,792.00 238.35,792.46 243.39,797.83 C245.55,800.12 246.41,802.18 246.76,805.90 C247.37,812.23 246.64,815.08 243.43,818.90 L 240.87 821.95 L 244.37 825.02 C248.66,828.79 250.38,833.65 249.76,840.19 C249.15,846.46 246.70,849.84 240.45,853.00 ZM 466.86 684.59 C466.87,685.53 466.87,686.44 466.88,687.30 L 467.00 709.10 L 497.00 708.50 L 497.00 741.98 L 391.78 742.52 L 392.31 738.00 C393.75,725.83 402.77,714.63 414.21,710.77 C416.03,710.16 428.46,709.41 442.00,709.08 L 466.50 708.50 L 466.80 690.00 C466.83,688.20 466.85,686.38 466.86,684.59 ZM 466.97 640.26 C466.96,641.09 466.95,641.94 466.94,642.82 C466.87,651.90 466.83,664.98 466.84,676.05 C466.79,671.44 466.66,667.77 466.48,666.25 L 465.86 661.00 L 437.10 661.00 L 436.80 667.25 L 436.50 673.50 L 427.30 673.79 L 418.10 674.07 L 417.80 667.79 L 417.50 661.50 L 381.25 661.24 L 345.00 660.98 L 345.00 674.00 L 326.00 674.00 L 326.00 670.62 C326.00,668.77 325.72,665.84 325.38,664.12 L 324.75 661.00 L 296.00 661.00 L 296.00 649.05 L 325.50 648.50 L 326.10 637.00 L 345.00 637.00 L 345.00 649.02 L 381.25 648.76 L 417.50 648.50 L 417.80 642.71 L 418.10 636.93 L 427.30 637.21 L 436.50 637.50 L 437.10 649.00 L 451.43 649.00 C465.45,649.00 465.78,648.95 466.37,646.75 C466.68,645.59 466.88,643.19 466.97,640.26 ZM 494.50 525.00 C495.52,524.86 496.69,524.73 497.99,524.62 C502.38,524.26 507.32,523.69 508.97,523.36 L 511.97 522.76 L 512.24 493.13 L 512.50 463.50 L 556.50 463.50 L 557.03 496.50 C557.33,514.65 557.67,529.63 557.78,529.79 C557.90,529.94 562.38,529.94 567.74,529.79 C577.10,529.51 577.53,529.40 578.72,526.91 C579.66,524.93 579.97,506.25 580.02,446.95 L 580.05 420.96 L 580.02 449.42 C579.99,493.33 579.71,529.66 579.42,530.13 C579.12,530.61 568.78,531.00 556.44,531.00 L 534.00 531.00 L 534.00 525.00 ZM 608.88 855.44 C594.55,859.70 579.87,854.35 573.86,842.69 C571.20,837.52 569.94,825.52 570.14,807.25 L 570.31 792.00 L 587.00 792.00 L 587.00 811.75 C587.00,828.55 587.26,832.02 588.75,835.00 C592.02,841.53 601.21,843.79 606.26,839.29 C610.40,835.61 611.00,832.07 611.00,811.53 L 611.00 792.00 L 616.75 791.99 C619.91,791.98 623.56,791.69 624.85,791.34 L 627.19 790.72 L 626.82 813.61 C626.46,834.99 626.28,836.84 624.10,841.74 C621.10,848.46 615.54,853.46 608.88,855.44 ZM 296.83 855.46 C282.49,859.72 267.69,854.14 261.85,842.28 C259.63,837.76 259.48,836.27 259.17,814.75 L 258.84 792.00 L 275.00 792.00 L 275.00 811.75 C275.00,828.55 275.26,832.02 276.75,835.00 C280.14,841.77 289.38,843.81 294.59,838.92 C297.98,835.73 299.00,828.95 299.00,809.45 L 299.00 792.00 L 315.19 792.00 L 314.80 814.25 C314.42,835.52 314.29,836.74 311.86,842.00 C308.70,848.86 303.57,853.46 296.83,855.46 ZM 808.00 832.57 L 808.00 856.00 L 800.67 856.00 C796.63,856.00 793.03,855.70 792.67,855.33 C792.30,854.97 792.00,849.74 792.00,843.71 L 792.00 832.76 L 783.66 818.13 C779.07,810.08 773.89,800.91 772.15,797.75 L 768.98 792.00 L 786.50 792.01 L 793.00 803.97 C796.58,810.55 799.82,815.95 800.21,815.97 C800.60,815.99 801.99,814.09 803.30,811.75 C804.62,809.41 807.64,804.01 810.02,799.75 L 814.36 792.00 L 822.18 792.00 C826.48,792.00 830.00,792.30 830.00,792.66 C830.00,793.31 822.43,807.16 812.85,824.03 ZM 401.00 841.00 L 401.00 856.00 L 379.17 856.00 C367.16,856.00 357.03,855.70 356.67,855.33 C356.30,854.97 356.00,840.57 356.00,823.33 L 356.00 792.00 L 372.00 792.00 L 372.00 841.00 ZM 343.00 792.00 L 343.00 856.00 L 327.00 856.00 L 327.00 792.00 ZM 425.00 806.00 L 425.00 841.20 L 433.83 840.85 C441.22,840.56 443.23,840.10 446.24,838.04 C451.06,834.73 453.00,830.31 453.00,822.61 C453.00,810.82 447.27,806.00 433.25,806.00 ZM 655.51 824.41 L 656.24 841.00 L 663.50 841.00 C676.49,841.00 682.51,836.32 683.57,825.41 C684.05,820.46 683.77,818.78 681.82,815.06 C678.19,808.12 675.31,806.56 665.33,806.14 C660.39,805.94 656.39,806.21 655.80,806.80 C655.13,807.47 655.03,813.53 655.51,824.41 ZM 726.00 805.80 L 726.00 841.20 L 734.93 840.85 C744.53,840.47 747.19,839.31 751.44,833.61 C753.08,831.41 753.50,829.37 753.50,823.50 C753.50,817.63 753.08,815.59 751.44,813.39 C747.19,807.69 744.53,806.53 734.93,806.15 ZM 523.12 353.58 C514.32,356.25 502.87,355.06 494.00,350.56 C490.13,348.60 480.00,339.16 480.01,337.53 C480.01,336.97 481.61,335.41 483.55,334.09 L 487.10 331.68 L 491.30 335.73 C497.45,341.67 503.22,344.23 511.72,344.79 C518.07,345.20 519.61,344.94 524.38,342.60 C527.37,341.14 531.44,338.15 533.42,335.96 L 537.02 331.97 L 541.01 334.01 C543.20,335.12 545.00,336.50 545.00,337.06 C545.00,338.93 535.61,348.16 531.64,350.18 C529.49,351.28 525.66,352.81 523.12,353.58 ZM 420.04 575.96 C420.06,580.14 420.42,581.00 421.43,581.00 C422.79,581.00 423.00,583.19 423.00,597.52 L 423.00 614.05 L 425.57 615.02 C426.98,615.56 435.98,616.00 445.57,616.00 C447.36,616.00 449.01,615.99 450.52,615.97 C458.31,615.91 462.49,615.87 464.70,617.94 L 464.72 617.96 C462.59,617.12 456.76,616.94 437.50,616.76 L 410.50 616.50 L 410.21 606.22 L 409.93 595.94 L 406.96 595.34 C404.02,594.75 404.00,594.70 404.00,587.88 L 404.00 581.00 L 419.86 581.00 ZM 352.78 606.35 L 352.50 616.50 L 346.23 616.56 C342.78,616.59 339.74,616.40 339.48,616.14 C339.21,615.88 339.00,607.85 339.00,598.29 L 339.00 580.92 L 356.48 581.50 L 357.14 586.13 C357.50,588.67 358.30,591.69 358.91,592.83 C359.91,594.71 359.69,594.97 356.54,595.56 L 353.07 596.21 ZM 539.33 200.75 L 535.62 227.00 L 530.00 227.00 L 530.00 198.00 C530.00,177.64 530.33,169.00 531.10,169.00 C533.96,169.00 543.00,172.28 543.03,173.32 C543.04,173.97 541.38,186.31 539.33,200.75 ZM 494.00 198.00 L 494.00 227.00 L 488.38 227.00 L 486.64 214.25 C482.48,183.83 481.04,172.63 481.26,172.44 C481.62,172.15 492.71,169.00 493.40,169.00 C493.73,169.00 494.00,182.05 494.00,198.00 ZM 522.05 290.00 L 521.50 325.50 L 512.38 325.79 L 503.27 326.07 L 502.61 321.98 C502.25,319.72 502.22,317.46 502.54,316.94 C502.86,316.42 505.12,316.00 507.56,316.00 L 512.00 316.00 L 512.00 290.00 ZM 521.50 829.50 L 520.90 842.00 L 531.02 842.00 C543.30,842.00 545.00,841.28 545.00,836.09 C545.00,830.47 543.51,829.74 531.73,829.61 ZM 210.00 829.00 L 210.00 842.00 L 219.81 842.00 C231.62,842.00 233.29,841.16 232.82,835.48 C232.39,830.19 229.87,829.03 218.75,829.01 ZM 487.44 301.42 C484.92,303.94 478.37,303.46 475.45,300.55 C470.15,295.24 473.36,286.63 481.11,285.37 C489.73,283.97 494.01,294.85 487.44,301.42 ZM 548.75 300.75 C545.78,303.94 539.74,303.84 536.45,300.55 C532.75,296.84 533.03,291.00 537.08,287.59 C538.77,286.17 540.99,285.00 542.01,285.00 C550.58,285.00 554.63,294.45 548.75,300.75 ZM 521.67 816.33 C522.03,816.70 525.80,817.00 530.03,817.00 C536.31,817.00 538.22,816.62 540.37,814.93 C543.38,812.56 543.75,809.48 541.35,806.83 C539.97,805.31 538.13,805.00 530.35,805.00 L 521.00 805.00 L 521.00 810.33 C521.00,813.27 521.30,815.97 521.67,816.33 ZM 210.75 816.42 C211.16,816.84 215.25,817.03 219.83,816.84 C228.79,816.47 231.00,815.20 231.00,810.38 C231.00,806.08 228.59,805.00 218.93,805.00 L 210.00 805.00 L 210.00 810.33 C210.00,813.27 210.34,816.01 210.75,816.42 ZM 487.10 529.28 C488.42,528.50 489.54,527.49 489.89,526.81 L 489.65 528.00 L 489.05 531.00 L 467.08 531.00 C454.15,531.00 444.87,530.61 444.53,530.04 C444.37,529.79 444.24,521.71 444.16,508.73 C444.44,525.43 445.20,528.79 447.16,529.77 C447.74,530.06 448.42,530.14 449.23,530.29 C450.48,530.53 458.86,530.79 467.85,530.86 C481.66,530.98 484.64,530.73 487.10,529.28 ZM 391.78 742.52 L 498.00 743.00 L 391.72 743.00 ZM 632.00 742.52 L 632.00 743.00 L 526.00 743.00 ZM 466.27 620.65 C467.14,623.50 467.13,628.05 467.04,635.31 C467.02,629.75 466.74,623.72 466.27,620.65 ZM 467.04 419.37 C467.14,433.54 467.56,437.61 469.13,439.24 C468.80,439.04 468.59,438.79 468.38,438.51 C467.46,437.24 467.11,433.46 467.04,419.37 ZM 539.77 440.97 L 553.09 441.00 L 553.03 441.06 ZM 567.51 363.20 C568.83,363.90 570.95,364.99 573.27,366.16 C570.41,364.72 568.59,363.84 567.51,363.20 ZM 451.57 365.73 C451.20,365.92 450.82,366.11 450.43,366.31 C450.34,366.35 450.25,366.40 450.16,366.44 C450.64,366.20 451.11,365.96 451.57,365.73 ZM 443.48 371.70 C443.49,371.73 443.50,371.76 443.51,371.79 C443.51,371.79 443.52,371.80 443.52,371.81 C443.50,371.77 443.49,371.73 443.48,371.70 Z" fill="rgb(32,45,49)"/>
<path d="M 494.50 525.00 L 534.00 525.00 L 534.00 531.00 L 556.44 531.00 C568.78,531.00 579.12,530.61 579.42,530.13 C579.71,529.66 579.99,493.33 580.02,449.42 L 580.05 420.96 L 580.10 369.57 L 573.30 366.17 L 573.21 366.12 C571.21,365.12 569.37,364.18 568.06,363.49 C571.18,365.07 577.75,368.29 585.20,371.88 C598.74,378.41 602.86,380.62 605.45,383.32 L 605.45 383.35 C605.19,383.13 604.99,383.00 604.86,383.00 C604.79,383.00 604.72,382.97 604.65,382.93 C604.59,382.90 604.53,382.87 604.48,382.88 C603.78,382.97 603.83,389.08 603.67,475.25 L 603.50 561.00 L 635.25 561.00 L 666.86 561.00 C666.70,578.77 666.38,588.69 665.92,590.35 C664.60,595.09 657.86,602.60 653.06,604.67 C649.07,606.39 629.40,607.67 623.62,606.59 L 620.00 605.91 L 620.00 561.00 L 603.99 561.00 L 604.24 635.15 L 604.50 709.29 L 604.00 635.40 L 603.50 561.50 L 534.50 561.50 L 533.87 568.00 L 513.51 568.00 C497.72,568.00 492.99,567.89 491.02,566.01 C491.01,565.95 491.00,565.90 491.00,565.84 C491.00,565.49 490.71,565.19 490.30,565.07 C490.02,564.55 489.80,563.95 489.58,563.24 C489.07,561.64 486.36,561.48 455.76,561.19 C437.47,561.02 422.17,560.56 421.78,560.17 C421.38,559.77 421.02,519.75 420.97,471.23 C420.93,420.18 420.52,383.00 420.00,383.00 C419.55,383.00 417.96,384.72 414.93,388.55 C413.66,390.07 411.85,392.42 409.23,395.93 C411.03,393.49 412.66,391.29 413.90,389.62 L 420.50 380.75 L 439.00 371.79 C444.74,369.01 449.96,366.46 453.45,364.72 C452.87,365.05 452.25,365.38 451.57,365.73 C451.11,365.96 450.64,366.20 450.16,366.44 C450.13,366.46 450.10,366.47 450.07,366.49 C444.37,369.32 443.02,370.39 443.48,371.70 L 443.48 371.70 C443.49,371.73 443.50,371.77 443.52,371.81 C443.90,373.10 444.15,407.87 444.07,449.38 C444.07,451.64 444.06,453.84 444.06,455.98 L 444.06 455.98 C444.01,481.26 443.98,497.83 444.16,508.73 C444.24,521.71 444.37,529.79 444.53,530.04 C444.87,530.61 454.15,531.00 467.08,531.00 L 489.05 531.00 L 489.65 528.00 L 489.89 526.81 C489.96,526.66 490.00,526.54 490.00,526.43 C490.00,526.42 490.00,526.46 490.00,526.50 C490.00,527.33 490.17,528.00 490.38,528.00 C490.59,528.00 491.32,527.33 492.00,526.50 C492.50,525.90 492.74,525.52 492.69,525.30 C493.23,525.19 493.83,525.09 494.50,525.00 ZM 539.33 200.75 C541.22,187.42 542.78,175.88 543.00,173.67 L 543.00 180.83 L 550.75 185.01 C567.30,193.93 579.40,208.01 586.45,226.54 C587.72,229.87 589.07,234.59 589.45,237.04 C590.82,245.84 591.77,247.61 595.80,248.82 C602.49,250.83 602.82,251.43 603.58,263.25 L 603.69 264.89 C603.60,264.32 603.50,263.86 603.39,263.58 C602.85,262.16 593.85,262.00 511.89,262.00 L 421.00 262.00 L 421.00 270.91 L 420.83 268.75 C420.60,265.86 420.65,260.85 420.95,257.62 L 421.50 251.73 L 426.99 249.12 C431.36,247.03 432.61,245.89 433.16,243.50 C437.12,226.33 440.31,218.29 447.21,208.14 C454.41,197.53 471.25,184.00 479.36,182.30 C482.13,181.72 482.20,181.56 481.60,177.02 L 480.98 172.33 L 487.03 170.65 C487.34,170.57 487.64,170.48 487.95,170.40 C484.81,171.28 481.46,172.28 481.26,172.44 C481.04,172.63 482.48,183.83 486.64,214.25 L 488.38 227.00 L 494.00 227.00 L 494.00 198.00 C494.00,182.91 493.76,170.42 493.46,169.11 C501.54,167.48 509.91,166.89 517.50,167.45 C525.88,168.07 528.92,168.33 532.33,169.13 C531.85,169.04 531.43,169.00 531.10,169.00 C530.33,169.00 530.00,177.64 530.00,198.00 L 530.00 227.00 L 535.62 227.00 ZM 296.00 661.00 L 324.75 661.00 L 325.38 664.12 C325.72,665.84 326.00,668.77 326.00,670.62 L 326.00 674.00 L 345.00 674.00 L 345.00 660.98 L 381.25 661.24 L 417.50 661.50 L 417.80 667.79 L 418.10 674.07 L 427.30 673.79 L 436.50 673.50 L 436.80 667.25 L 437.10 661.00 L 465.86 661.00 L 466.48 666.25 C466.66,667.77 466.79,671.44 466.84,676.05 C466.85,679.09 466.85,681.98 466.86,684.59 C466.85,686.38 466.83,688.20 466.80,690.00 L 466.50 708.50 L 442.00 709.08 C429.17,709.39 417.35,710.08 414.59,710.68 C414.89,710.55 415.19,710.43 415.50,710.30 C416.60,709.86 390.16,709.38 356.75,709.24 L 296.00 708.98 L 296.00 661.00 ZM 466.97 640.26 C466.88,643.19 466.68,645.59 466.37,646.75 C465.78,648.95 465.45,649.00 451.43,649.00 L 437.10 649.00 L 436.50 637.50 L 427.30 637.21 L 418.10 636.93 L 417.80 642.71 L 417.50 648.50 L 381.25 648.76 L 345.00 649.02 L 345.00 637.00 L 326.10 637.00 L 325.50 648.50 L 296.00 649.05 L 296.00 616.00 L 339.00 616.00 L 339.00 598.54 C339.00,607.99 339.22,615.88 339.48,616.14 C339.74,616.40 342.78,616.59 346.23,616.56 L 352.50 616.50 L 352.78 606.35 L 353.00 598.63 L 353.00 605.83 C353.00,611.24 353.19,615.85 353.42,616.08 C353.64,616.31 366.11,616.37 381.13,616.22 C401.23,616.01 408.63,615.61 409.20,614.72 C409.62,614.05 409.98,609.56 409.98,604.75 L 410.00 598.34 L 410.21 606.22 L 410.50 616.50 L 437.50 616.76 C456.76,616.94 462.59,617.12 464.72,617.96 C465.41,618.62 465.91,619.49 466.27,620.65 C466.74,623.72 467.02,629.75 467.04,635.31 C467.03,635.75 467.02,636.21 467.02,636.67 C467.00,637.80 466.98,639.00 466.97,640.26 ZM 467.04 419.37 C467.01,415.09 467.02,409.86 467.04,403.47 L 467.08 390.45 C467.22,379.51 467.52,371.80 467.85,371.59 C469.31,370.69 477.47,376.52 481.19,381.12 C483.13,383.53 486.70,388.27 489.11,391.65 C502.33,410.18 511.21,422.00 511.94,422.00 C512.40,422.00 515.61,418.06 519.10,413.25 C540.05,384.28 545.27,377.81 550.34,374.53 C553.18,372.69 555.85,371.51 556.27,371.92 C556.70,372.32 557.32,386.86 557.66,404.24 L 557.92 417.89 L 557.92 417.89 L 558.05 436.04 L 555.54 438.55 L 553.09 441.00 L 539.77 440.97 L 539.77 440.97 L 511.43 440.78 C477.14,440.55 471.05,440.46 469.13,439.24 C467.56,437.61 467.14,433.54 467.04,419.37 ZM 356.50 580.50 L 357.00 523.50 L 357.00 561.00 L 388.44 561.00 C405.73,561.00 420.03,561.34 420.21,561.75 C420.24,561.83 420.27,562.05 420.29,562.40 C419.77,561.75 417.40,561.50 412.25,561.50 C407.71,561.50 404.00,561.84 404.00,562.25 L 404.00 587.88 C404.00,594.70 404.02,594.75 406.96,595.34 L 409.93 595.94 L 409.93 596.00 L 407.00 596.00 C404.07,596.00 404.00,596.12 404.00,600.95 C404.00,605.85 403.95,605.92 400.42,606.58 C394.59,607.67 375.89,606.48 371.86,604.75 C369.86,603.90 366.43,601.58 364.24,599.60 C361.21,596.86 359.39,596.00 356.63,596.00 L 354.19 596.00 L 356.54 595.56 C359.69,594.97 359.91,594.71 358.91,592.83 C358.30,591.69 357.50,588.67 357.14,586.13 L 356.48 581.50 L 341.36 581.00 L 347.75 580.79 ZM 543.00 173.22 C542.71,172.61 540.07,171.43 537.27,170.47 L 543.00 172.14 ZM 639.66 429.45 C635.84,424.29 629.05,415.14 623.38,407.49 C619.05,401.65 614.67,395.68 611.75,391.64 C614.48,395.34 617.95,400.04 621.33,404.62 C627.31,412.71 635.42,423.70 639.66,429.45 ZM 399.69 721.05 C395.73,725.89 393.05,731.82 392.31,738.00 C393.09,731.48 395.58,725.79 399.69,721.05 ZM 364.66 456.18 C363.34,457.98 361.86,460.04 360.67,461.74 L 359.97 462.74 C360.12,462.43 360.28,462.14 360.45,461.85 C361.47,460.09 362.83,458.53 364.66,456.18 ZM 604.27 274.00 L 604.00 274.00 L 604.00 269.77 ZM 390.65 421.13 C382.47,432.24 375.53,441.62 371.21,447.42 C376.14,440.78 383.16,431.30 390.65,421.13 ZM 566.17 362.08 C566.51,361.27 567.94,359.12 569.75,356.71 C567.94,359.12 566.52,361.29 566.19,362.13 C566.18,362.11 566.18,362.09 566.17,362.08 ZM 457.56 361.50 C456.92,360.21 455.41,357.75 453.59,355.02 C455.41,357.75 456.92,360.21 457.57,361.48 C457.57,361.49 457.57,361.50 457.56,361.50 Z" fill="rgb(244,125,26)"/>
<path d="M 0.00 512.00 L 0.00 0.00 L 512.00 0.00 L 1024.00 0.00 L 1024.00 512.00 L 1024.00 1024.00 L 512.00 1024.00 L 0.00 1024.00 L 0.00 512.00 ZM 296.83 855.46 C303.57,853.46 308.70,848.86 311.86,842.00 C314.29,836.74 314.42,835.52 314.80,814.25 L 315.19 792.00 L 307.10 792.00 L 299.00 792.00 L 299.00 809.45 C299.00,828.95 297.98,835.73 294.59,838.92 C289.38,843.81 280.14,841.77 276.75,835.00 C275.26,832.02 275.00,828.55 275.00,811.75 L 275.00 792.00 L 266.92 792.00 L 258.84 792.00 L 259.17 814.75 C259.48,836.27 259.63,837.76 261.85,842.28 C267.69,854.14 282.49,859.72 296.83,855.46 ZM 608.88 855.44 C615.54,853.46 621.10,848.46 624.10,841.74 C626.28,836.84 626.46,834.99 626.82,813.61 L 627.19 790.72 L 624.85 791.34 C623.56,791.69 619.91,791.98 616.75,791.99 L 611.00 792.00 L 611.00 811.53 C611.00,832.07 610.40,835.61 606.26,839.29 C601.21,843.79 592.02,841.53 588.75,835.00 C587.26,832.02 587.00,828.55 587.00,811.75 L 587.00 792.00 L 578.66 792.00 L 570.31 792.00 L 570.14 807.25 C569.94,825.52 571.20,837.52 573.86,842.69 C579.87,854.35 594.55,859.70 608.88,855.44 ZM 240.45 853.00 C246.70,849.84 249.15,846.46 249.76,840.19 C250.38,833.65 248.66,828.79 244.37,825.02 L 240.87 821.95 L 243.43 818.90 C246.64,815.08 247.37,812.23 246.76,805.90 C246.41,802.18 245.55,800.12 243.39,797.83 C238.35,792.46 236.02,792.00 214.03,792.00 L 194.00 792.00 L 194.00 823.33 C194.00,840.57 194.34,855.00 194.75,855.42 C195.16,855.83 204.50,856.02 215.50,855.83 C234.50,855.52 235.75,855.38 240.45,853.00 ZM 343.00 824.00 L 343.00 792.00 L 335.00 792.00 L 327.00 792.00 L 327.00 824.00 L 327.00 856.00 L 335.00 856.00 L 343.00 856.00 L 343.00 824.00 ZM 401.00 848.50 L 401.00 841.00 L 386.50 841.00 L 372.00 841.00 L 372.00 816.50 L 372.00 792.00 L 364.00 792.00 L 356.00 792.00 L 356.00 823.33 C356.00,840.57 356.30,854.97 356.67,855.33 C357.03,855.70 367.16,856.00 379.17,856.00 L 401.00 856.00 L 401.00 848.50 ZM 444.62 854.91 C456.20,852.89 465.61,844.43 468.46,833.48 C472.87,816.55 466.69,801.56 452.56,794.87 C446.56,792.03 446.31,792.00 427.75,792.00 L 409.00 792.00 L 409.00 823.33 C409.00,840.57 409.30,854.97 409.67,855.33 C410.76,856.42 437.81,856.09 444.62,854.91 ZM 552.24 853.16 C560.37,849.16 563.27,842.48 561.00,832.99 C560.05,829.05 558.91,827.22 555.90,824.80 C552.07,821.72 552.04,821.66 554.11,820.21 C556.80,818.33 559.00,813.06 559.00,808.50 C559.00,803.24 556.70,798.63 552.44,795.38 L 548.66 792.50 L 526.83 792.20 L 505.00 791.89 L 505.00 823.28 C505.00,840.54 505.34,855.01 505.75,855.43 C506.16,855.84 515.72,856.03 527.00,855.84 C546.06,855.51 547.83,855.33 552.24,853.16 ZM 681.42 853.05 C689.03,850.07 695.16,843.86 698.03,836.22 C699.80,831.53 700.12,828.97 699.77,822.00 C699.26,811.66 696.38,805.26 689.49,799.20 C682.27,792.85 678.49,792.00 657.32,792.00 L 639.00 792.00 L 639.00 823.33 C639.00,840.57 639.34,855.01 639.75,855.42 C640.16,855.84 648.38,856.00 658.00,855.78 C673.36,855.42 676.22,855.09 681.42,853.05 ZM 744.88 854.95 C755.17,853.28 762.28,848.37 766.42,840.09 C769.52,833.89 770.18,830.73 770.11,822.54 C769.99,809.39 764.73,800.52 753.82,795.07 L 747.68 792.00 L 728.84 792.00 L 710.00 792.00 L 710.00 823.33 C710.00,840.57 710.30,854.97 710.67,855.33 C711.72,856.39 737.83,856.09 744.88,854.95 ZM 808.00 844.28 L 808.00 832.57 L 812.85 824.03 C822.43,807.16 830.00,793.31 830.00,792.66 C830.00,792.30 826.48,792.00 822.18,792.00 L 814.36 792.00 L 810.02 799.75 C807.64,804.01 804.62,809.41 803.30,811.75 C801.99,814.09 800.60,815.99 800.21,815.97 C799.82,815.95 796.58,810.55 793.00,803.97 L 786.50 792.01 L 777.74 792.00 L 768.98 792.00 L 772.15 797.75 C773.89,800.91 779.07,810.08 783.66,818.13 L 792.00 832.76 L 792.00 843.71 C792.00,849.74 792.30,854.97 792.67,855.33 C793.03,855.70 796.63,856.00 800.67,856.00 L 808.00 856.00 L 808.00 844.28 ZM 498.00 680.00 L 498.00 617.00 L 512.00 617.00 L 526.00 617.00 L 526.00 680.00 L 526.00 743.00 L 579.00 743.00 L 632.00 743.00 L 632.00 739.18 C632.00,733.66 629.53,727.23 625.21,721.51 C621.14,716.14 616.13,712.78 609.00,710.64 L 604.50 709.29 L 604.24 635.15 L 603.99 561.00 L 611.99 561.00 L 620.00 561.00 L 620.00 583.45 L 620.00 605.91 L 623.62 606.59 C629.40,607.67 649.07,606.39 653.06,604.67 C657.86,602.60 664.60,595.09 665.92,590.35 C666.62,587.81 666.99,566.02 666.99,526.42 L 667.00 466.33 L 657.25 453.22 C651.89,446.01 644.12,435.52 640.00,429.92 C635.88,424.32 627.47,412.93 621.33,404.62 C615.18,396.30 608.74,387.56 607.00,385.18 C604.21,381.37 601.67,379.82 585.20,371.88 C574.95,366.94 566.37,362.70 566.14,362.47 C565.91,362.24 567.53,359.65 569.75,356.71 C574.44,350.50 579.60,340.64 581.58,334.09 C583.89,326.46 585.18,309.47 584.83,291.25 L 584.50 274.00 L 594.39 274.00 L 604.27 274.00 L 603.58 263.25 C602.82,251.43 602.49,250.83 595.80,248.82 C591.77,247.61 590.82,245.84 589.45,237.04 C589.07,234.59 587.72,229.87 586.45,226.54 C579.40,208.01 567.30,193.93 550.75,185.01 L 543.00 180.83 L 543.00 176.48 L 543.00 172.14 L 537.25 170.46 C530.52,168.50 529.40,168.33 517.50,167.45 C507.87,166.74 497.00,167.88 487.03,170.65 L 480.98 172.33 L 481.60 177.02 C482.20,181.56 482.13,181.72 479.36,182.30 C471.25,184.00 454.41,197.53 447.21,208.14 C440.31,218.29 437.12,226.33 433.16,243.50 C432.61,245.89 431.36,247.03 426.99,249.12 L 421.50 251.73 L 420.95 257.62 C420.65,260.85 420.60,265.86 420.83,268.75 L 421.25 274.00 L 430.62 274.00 L 440.00 274.00 L 440.01 298.25 C440.03,324.86 440.74,330.06 445.93,341.50 C447.55,345.08 451.00,351.16 453.59,355.02 C456.17,358.88 458.11,362.22 457.89,362.44 C457.67,362.66 449.17,366.87 439.00,371.79 L 420.50 380.75 L 413.90 389.62 C410.27,394.51 403.33,403.90 398.48,410.50 C384.38,429.67 370.04,449.05 365.56,455.00 C356.64,466.85 357.56,459.46 357.00,523.50 L 356.50 580.50 L 347.75 580.79 L 339.00 581.08 L 339.00 598.54 L 339.00 616.00 L 317.50 616.00 L 296.00 616.00 L 296.00 662.49 L 296.00 708.98 L 356.75 709.24 C390.16,709.38 416.60,709.86 415.50,710.30 C401.81,715.80 393.81,725.35 392.31,738.00 L 391.72 743.00 L 444.86 743.00 L 498.00 743.00 L 498.00 680.00 ZM 210.00 835.50 L 210.00 829.00 L 218.75 829.01 C229.87,829.03 232.39,830.19 232.82,835.48 C233.29,841.16 231.62,842.00 219.81,842.00 L 210.00 842.00 L 210.00 835.50 ZM 210.75 816.42 C210.34,816.01 210.00,813.27 210.00,810.33 L 210.00 805.00 L 218.93 805.00 C228.59,805.00 231.00,806.08 231.00,810.38 C231.00,815.20 228.79,816.47 219.83,816.84 C215.25,817.03 211.16,816.84 210.75,816.42 ZM 425.00 823.60 L 425.00 806.00 L 433.25 806.00 C447.27,806.00 453.00,810.82 453.00,822.61 C453.00,830.31 451.06,834.73 446.24,838.04 C443.23,840.10 441.22,840.56 433.83,840.85 L 425.00 841.20 L 425.00 823.60 ZM 521.20 835.75 L 521.50 829.50 L 531.73 829.61 C543.51,829.74 545.00,830.47 545.00,836.09 C545.00,841.28 543.30,842.00 531.02,842.00 L 520.90 842.00 L 521.20 835.75 ZM 521.67 816.33 C521.30,815.97 521.00,813.27 521.00,810.33 L 521.00 805.00 L 530.35 805.00 C538.13,805.00 539.97,805.31 541.35,806.83 C543.75,809.48 543.38,812.56 540.37,814.93 C538.22,816.62 536.31,817.00 530.03,817.00 C525.80,817.00 522.03,816.70 521.67,816.33 ZM 655.51 824.41 C655.03,813.53 655.13,807.47 655.80,806.80 C656.39,806.21 660.39,805.94 665.33,806.14 C675.31,806.56 678.19,808.12 681.82,815.06 C683.77,818.78 684.05,820.46 683.57,825.41 C682.51,836.32 676.49,841.00 663.50,841.00 L 656.24 841.00 L 655.51 824.41 ZM 726.00 823.50 L 726.00 805.80 L 734.93 806.15 C744.53,806.53 747.19,807.69 751.44,813.39 C753.08,815.59 753.50,817.63 753.50,823.50 C753.50,829.37 753.08,831.41 751.44,833.61 C747.19,839.31 744.53,840.47 734.93,840.85 L 726.00 841.20 L 726.00 823.50 ZM 353.42 616.08 C353.19,615.85 353.00,611.24 353.00,605.83 L 353.00 596.00 L 356.63 596.00 C359.39,596.00 361.21,596.86 364.24,599.60 C366.43,601.58 369.86,603.90 371.86,604.75 C375.89,606.48 394.59,607.67 400.42,606.58 C403.95,605.92 404.00,605.85 404.00,600.95 C404.00,596.12 404.07,596.00 407.00,596.00 L 410.00 596.00 L 409.98 604.75 C409.98,609.56 409.62,614.05 409.20,614.72 C408.63,615.61 401.23,616.01 381.13,616.22 C366.11,616.37 353.64,616.31 353.42,616.08 ZM 404.00 572.00 C404.00,567.05 404.00,562.66 404.00,562.25 C404.00,561.84 407.71,561.50 412.25,561.50 C418.24,561.50 420.47,561.84 420.40,562.75 C420.35,563.44 420.23,567.83 420.15,572.50 L 420.00 581.00 L 412.00 581.00 L 404.00 581.00 L 404.00 572.00 ZM 490.00 526.50 C490.00,525.67 490.73,525.00 491.62,525.00 C492.95,525.00 493.02,525.27 492.00,526.50 C491.32,527.33 490.59,528.00 490.38,528.00 C490.17,528.00 490.00,527.33 490.00,526.50 ZM 503.76 372.97 C496.82,371.80 489.24,369.12 483.00,365.62 C474.81,361.04 463.11,348.89 458.72,340.41 C452.64,328.65 452.00,324.58 452.00,297.79 L 452.00 274.00 L 512.50 274.00 L 573.00 274.00 L 573.00 296.31 C573.00,321.46 571.59,330.15 565.65,341.50 C561.13,350.13 548.25,362.84 539.91,366.91 C527.42,372.99 515.63,374.97 503.76,372.97 ZM 523.12 353.58 C525.66,352.81 529.49,351.28 531.64,350.18 C535.61,348.16 545.00,338.93 545.00,337.06 C545.00,336.50 543.20,335.12 541.01,334.01 L 537.02 331.97 L 533.42 335.96 C531.44,338.15 527.37,341.14 524.38,342.60 C519.61,344.94 518.07,345.20 511.72,344.79 C503.22,344.23 497.45,341.67 491.30,335.73 L 487.10 331.68 L 483.55 334.09 C481.61,335.41 480.01,336.97 480.01,337.53 C480.00,339.16 490.13,348.60 494.00,350.56 C502.87,355.06 514.32,356.25 523.12,353.58 ZM 521.77 307.75 L 522.05 290.00 L 517.02 290.00 L 512.00 290.00 L 512.00 303.00 L 512.00 316.00 L 507.56 316.00 C505.12,316.00 502.86,316.42 502.54,316.94 C502.22,317.46 502.25,319.72 502.61,321.98 L 503.27 326.07 L 512.38 325.79 L 521.50 325.50 L 521.77 307.75 ZM 487.44 301.42 C494.01,294.85 489.73,283.97 481.11,285.37 C473.36,286.63 470.15,295.24 475.45,300.55 C478.37,303.46 484.92,303.94 487.44,301.42 ZM 548.75 300.75 C554.63,294.45 550.58,285.00 542.01,285.00 C540.99,285.00 538.77,286.17 537.08,287.59 C533.03,291.00 532.75,296.84 536.45,300.55 C539.74,303.84 545.78,303.94 548.75,300.75 Z" fill="rgb(254,254,253)"/>
</g>
</svg>