<svg xmlns="http://www.w3.org/2000/svg" viewBox="0 0 390 844" width="390" height="844">
  <rect width="390" height="844" fill="#FBFAF7"/>
  <text x="20" y="58" font-family="Inter,sans-serif" font-size="12" fill="#2A2825" font-weight="600">9:41</text>
  <!-- Progress -->
  <rect x="24" y="72" width="8" height="8" rx="4" fill="#1E6FD9"/>
  <rect x="44" y="72" width="24" height="8" rx="4" fill="#1E6FD9"/>
  <circle cx="80" cy="76" r="4" fill="#E8E2D7"/>
  <text x="366" y="82" font-family="Inter,sans-serif" font-size="13" fill="#8A857C" text-anchor="end">Step 2 of 3</text>
  <!-- Back -->
  <text x="24" y="82" font-family="Inter,sans-serif" font-size="24" fill="#2A2825">‹</text>
  <!-- Headline -->
  <text x="24" y="124" font-family="Georgia,serif" font-size="26" fill="#2A2825" font-weight="700">Where are you</text>
  <text x="24" y="154" font-family="Georgia,serif" font-size="26" fill="#2A2825" font-weight="700">building?</text>
  <text x="24" y="180" font-family="Inter,sans-serif" font-size="14" fill="#8A857C">Regional costs vary. We'll apply the right multiplier.</text>
  <!-- Search bar -->
  <rect x="24" y="200" width="342" height="48" rx="10" fill="#FFFFFF" stroke="#E8E2D7" stroke-width="1"/>
  <text x="44" y="229" font-family="Inter,sans-serif" font-size="16" fill="#C4C0BA">🔍  Search cities…</text>
  <!-- City rows -->
  <rect x="24" y="262" width="342" height="56" rx="10" fill="#F0F6FF" stroke="#1E6FD9" stroke-width="1.5"/>
  <text x="44" y="294" font-family="Inter,sans-serif" font-size="15" fill="#1E6FD9" font-weight="600">📍  Mumbai</text>
  <text x="44" y="310" font-family="Inter,sans-serif" font-size="12" fill="#8A857C">Tier 1 Metro</text>
  <text x="352" y="292" font-family="Inter,sans-serif" font-size="13" fill="#A06A3A" font-weight="700" text-anchor="end">1.25×</text>
  <circle cx="358" cy="285" r="0"/>
  <circle cx="364" cy="290" r="10" fill="#1E6FD9"/>
  <text x="364" y="294" font-family="Inter,sans-serif" font-size="11" fill="#FFF" text-anchor="middle" font-weight="700">✓</text>

  <rect x="24" y="330" width="342" height="56" rx="10" fill="#FFFFFF" stroke="#E8E2D7" stroke-width="1"/>
  <text x="44" y="362" font-family="Inter,sans-serif" font-size="15" fill="#2A2825" font-weight="600">📍  Bengaluru</text>
  <text x="44" y="378" font-family="Inter,sans-serif" font-size="12" fill="#8A857C">Tier 1 Metro</text>
  <text x="352" y="358" font-family="Inter,sans-serif" font-size="13" fill="#A06A3A" font-weight="700" text-anchor="end">1.22×</text>

  <rect x="24" y="398" width="342" height="56" rx="10" fill="#FFFFFF" stroke="#E8E2D7" stroke-width="1"/>
  <text x="44" y="430" font-family="Inter,sans-serif" font-size="15" fill="#2A2825" font-weight="600">📍  Delhi</text>
  <text x="44" y="446" font-family="Inter,sans-serif" font-size="12" fill="#8A857C">Tier 1 Metro</text>
  <text x="352" y="426" font-family="Inter,sans-serif" font-size="13" fill="#A06A3A" font-weight="700" text-anchor="end">1.18×</text>

  <rect x="24" y="466" width="342" height="56" rx="10" fill="#FFFFFF" stroke="#E8E2D7" stroke-width="1"/>
  <text x="44" y="498" font-family="Inter,sans-serif" font-size="15" fill="#2A2825" font-weight="600">📍  Hyderabad</text>
  <text x="44" y="514" font-family="Inter,sans-serif" font-size="12" fill="#8A857C">Tier 1 Metro</text>
  <text x="352" y="494" font-family="Inter,sans-serif" font-size="13" fill="#A06A3A" font-weight="700" text-anchor="end">1.15×</text>

  <rect x="24" y="534" width="342" height="56" rx="10" fill="#FFFFFF" stroke="#E8E2D7" stroke-width="1"/>
  <text x="44" y="566" font-family="Inter,sans-serif" font-size="15" fill="#2A2825" font-weight="600">📍  Chennai</text>
  <text x="44" y="582" font-family="Inter,sans-serif" font-size="12" fill="#8A857C">Tier 1 Metro</text>
  <text x="352" y="562" font-family="Inter,sans-serif" font-size="13" fill="#A06A3A" font-weight="700" text-anchor="end">1.12×</text>

  <!-- Selected badge -->
  <rect x="24" y="706" width="110" height="32" rx="8" fill="#EBF2FC"/>
  <text x="79" y="727" font-family="Inter,sans-serif" font-size="14" fill="#1E6FD9" font-weight="600" text-anchor="middle">📍 Mumbai</text>
  <!-- Continue button -->
  <rect x="24" y="748" width="342" height="52" rx="12" fill="#1E6FD9"/>
  <text x="195" y="779" font-family="Inter,sans-serif" font-size="16" fill="#FFFFFF" font-weight="600" text-anchor="middle">Continue</text>
  <rect x="155" y="820" width="80" height="4" rx="2" fill="#2A2825" opacity="0.2"/>
</svg>
