<svg xmlns="http://www.w3.org/2000/svg" viewBox="0 0 390 844" width="390" height="844">
  <rect width="390" height="844" fill="#F5F2EC"/>
  <text x="20" y="34" font-family="Inter,sans-serif" font-size="12" fill="#1C1917" font-weight="600">9:41</text>

  <!-- Back + progress -->
  <text x="20" y="72" font-family="Inter,sans-serif" font-size="26" fill="#1C1917">‹</text>
  <circle cx="160" cy="64" r="4" fill="#A06A3A"/>
  <rect x="172" y="60" width="28" height="8" rx="4" fill="#A06A3A"/>
  <circle cx="212" cy="64" r="4" fill="#E5E0D8"/>
  <text x="370" y="70" font-family="Inter,sans-serif" font-size="13" fill="#8A857C" text-anchor="end">Step 2 of 3</text>

  <!-- Headline -->
  <text x="20" y="114" font-family="Georgia,serif" font-size="24" fill="#1C1917" font-weight="700">Where are you building?</text>
  <text x="20" y="140" font-family="Inter,sans-serif" font-size="14" fill="#8A857C">Regional costs vary. We'll apply the right multiplier.</text>

  <!-- Search bar — box style for input -->
  <rect x="20" y="160" width="350" height="48" rx="8" fill="#FFFFFF" stroke="#E5E0D8" stroke-width="1"/>
  <text x="44" y="189" font-family="Inter,sans-serif" font-size="15" fill="#C4C0BA">🔍  Search cities…</text>

  <!-- SELECTED city row — teak border + light teak bg -->
  <rect x="20" y="222" width="350" height="58" rx="10" fill="#F5E8D4" stroke="#A06A3A" stroke-width="1.5"/>
  <text x="40" y="252" font-family="Inter,sans-serif" font-size="15" fill="#6B4226" font-weight="700">📍  Mumbai</text>
  <text x="40" y="270" font-family="Inter,sans-serif" font-size="12" fill="#8A857C">Tier 1 Metro</text>
  <text x="355" y="250" font-family="Inter,sans-serif" font-size="13" fill="#A06A3A" font-weight="700" text-anchor="end">1.25×</text>
  <circle cx="360" cy="243" r="11" fill="#A06A3A"/>
  <text x="360" y="248" font-family="Inter,sans-serif" font-size="11" fill="#FFF" text-anchor="middle" font-weight="700">✓</text>

  <!-- Unselected rows -->
  <rect x="20" y="292" width="350" height="56" rx="10" fill="#FFFFFF" stroke="#E5E0D8" stroke-width="1"/>
  <text x="40" y="322" font-family="Inter,sans-serif" font-size="15" fill="#1C1917" font-weight="600">📍  Bengaluru</text>
  <text x="40" y="340" font-family="Inter,sans-serif" font-size="12" fill="#8A857C">Tier 1 Metro</text>
  <text x="355" y="318" font-family="Inter,sans-serif" font-size="13" fill="#A06A3A" font-weight="700" text-anchor="end">1.22×</text>

  <rect x="20" y="360" width="350" height="56" rx="10" fill="#FFFFFF" stroke="#E5E0D8" stroke-width="1"/>
  <text x="40" y="390" font-family="Inter,sans-serif" font-size="15" fill="#1C1917" font-weight="600">📍  Delhi</text>
  <text x="40" y="408" font-family="Inter,sans-serif" font-size="12" fill="#8A857C">Tier 1 Metro</text>
  <text x="355" y="386" font-family="Inter,sans-serif" font-size="13" fill="#A06A3A" font-weight="700" text-anchor="end">1.18×</text>

  <rect x="20" y="428" width="350" height="56" rx="10" fill="#FFFFFF" stroke="#E5E0D8" stroke-width="1"/>
  <text x="40" y="458" font-family="Inter,sans-serif" font-size="15" fill="#1C1917" font-weight="600">📍  Hyderabad</text>
  <text x="40" y="476" font-family="Inter,sans-serif" font-size="12" fill="#8A857C">Tier 1 Metro</text>
  <text x="355" y="454" font-family="Inter,sans-serif" font-size="13" fill="#A06A3A" font-weight="700" text-anchor="end">1.15×</text>

  <rect x="20" y="496" width="350" height="56" rx="10" fill="#FFFFFF" stroke="#E5E0D8" stroke-width="1"/>
  <text x="40" y="526" font-family="Inter,sans-serif" font-size="15" fill="#1C1917" font-weight="600">📍  Chennai</text>
  <text x="40" y="544" font-family="Inter,sans-serif" font-size="12" fill="#8A857C">Tier 1 Metro</text>
  <text x="355" y="522" font-family="Inter,sans-serif" font-size="13" fill="#A06A3A" font-weight="700" text-anchor="end">1.12×</text>

  <!-- Selected badge + CTA -->
  <rect x="20" y="714" width="110" height="32" rx="8" fill="#F5E8D4"/>
  <text x="75" y="735" font-family="Inter,sans-serif" font-size="13" fill="#A06A3A" font-weight="700" text-anchor="middle">📍 Mumbai</text>
  <rect x="20" y="758" width="350" height="52" rx="6" fill="#1C1917"/>
  <text x="195" y="789" font-family="Inter,sans-serif" font-size="13" fill="#FFFFFF" text-anchor="middle" font-weight="700" letter-spacing="1">CONTINUE</text>
  <rect x="155" y="828" width="80" height="4" rx="2" fill="#1C1917" opacity="0.15"/>
</svg>
