<svg xmlns="http://www.w3.org/2000/svg" viewBox="0 0 390 844" width="390" height="844">
  <rect width="390" height="844" fill="#FBFAF7"/>
  <text x="20" y="58" font-family="Inter,sans-serif" font-size="12" fill="#2A2825" font-weight="600">9:41</text>
  <!-- Header -->
  <text x="24" y="100" font-family="Georgia,serif" font-size="26" fill="#2A2825" font-weight="700">My Projects</text>
  <text x="24" y="122" font-family="Inter,sans-serif" font-size="14" fill="#8A857C">2 designs</text>
  <circle cx="358" cy="100" r="20" fill="#1E6FD9"/>
  <text x="358" y="106" font-family="Inter,sans-serif" font-size="15" fill="#FFF" text-anchor="middle" font-weight="700">R</text>
  <!-- New Design Banner -->
  <rect x="24" y="144" width="342" height="72" rx="14" fill="#EBF2FC"/>
  <text x="44" y="172" font-family="Inter,sans-serif" font-size="15" fill="#1E6FD9" font-weight="700">Start a new design</text>
  <text x="44" y="192" font-family="Inter,sans-serif" font-size="13" fill="#4A4744">Draw rooms, pick finishes, get an estimate</text>
  <rect x="296" y="157" width="56" height="36" rx="10" fill="#1E6FD9"/>
  <text x="324" y="180" font-family="Inter,sans-serif" font-size="14" fill="#FFF" text-anchor="middle" font-weight="600">+ New</text>
  <!-- Card 1 -->
  <rect x="24" y="236" width="342" height="88" rx="14" fill="#FFFFFF" stroke="#E8E2D7" stroke-width="1"/>
  <rect x="40" y="254" width="56" height="56" rx="10" fill="#F5F2EC"/>
  <text x="68" y="287" font-size="26" text-anchor="middle">🏡</text>
  <text x="116" y="270" font-family="Inter,sans-serif" font-size="15" fill="#2A2825" font-weight="700">Sharma Residence</text>
  <rect x="268" y="256" width="44" height="18" rx="5" fill="#27AE6020"/>
  <text x="290" y="268" font-family="Inter,sans-serif" font-size="10" fill="#27AE60" text-anchor="middle" font-weight="700">SAVED</text>
  <text x="116" y="290" font-family="Inter,sans-serif" font-size="13" fill="#8A857C">Mumbai  ·  2 floors</text>
  <text x="116" y="308" font-family="Inter,sans-serif" font-size="12" fill="#C4C0BA">Updated 15 Feb</text>
  <text x="354" y="287" font-family="Inter,sans-serif" font-size="20" fill="#C4C0BA">›</text>
  <!-- Card 2 -->
  <rect x="24" y="336" width="342" height="88" rx="14" fill="#FFFFFF" stroke="#E8E2D7" stroke-width="1"/>
  <rect x="40" y="354" width="56" height="56" rx="10" fill="#F5F2EC"/>
  <text x="68" y="387" font-size="26" text-anchor="middle">🏠</text>
  <text x="116" y="370" font-family="Inter,sans-serif" font-size="15" fill="#2A2825" font-weight="700">Weekend Home — Lonavala</text>
  <rect x="290" y="356" width="44" height="18" rx="5" fill="#F39C1220"/>
  <text x="312" y="368" font-family="Inter,sans-serif" font-size="10" fill="#F39C12" text-anchor="middle" font-weight="700">DRAFT</text>
  <text x="116" y="390" font-family="Inter,sans-serif" font-size="13" fill="#8A857C">Pune  ·  1 floor</text>
  <text x="116" y="408" font-family="Inter,sans-serif" font-size="12" fill="#C4C0BA">Updated 10 Mar</text>
  <text x="354" y="387" font-family="Inter,sans-serif" font-size="20" fill="#C4C0BA">›</text>
  <!-- Empty area hint -->
  <text x="195" y="560" font-family="Inter,sans-serif" font-size="14" fill="#C4C0BA" text-anchor="middle">Tap a design to open the canvas</text>
  <!-- Bottom nav placeholder -->
  <rect x="0" y="780" width="390" height="64" fill="#FFFFFF" stroke="#E8E2D7" stroke-width="1"/>
  <text x="78" y="818" font-family="Inter,sans-serif" font-size="24" text-anchor="middle">🏠</text>
  <text x="195" y="818" font-family="Inter,sans-serif" font-size="24" text-anchor="middle">✏️</text>
  <text x="312" y="818" font-family="Inter,sans-serif" font-size="24" text-anchor="middle">👤</text>
  <circle cx="78" cy="790" r="3" fill="#1E6FD9"/>
  <rect x="155" y="828" width="80" height="4" rx="2" fill="#2A2825" opacity="0.2"/>
</svg>
