<svg xmlns="http://www.w3.org/2000/svg" viewBox="0 0 390 844" width="390" height="844">
  <rect width="390" height="844" fill="#F5F2EC"/>
  <text x="20" y="34" font-family="Inter,sans-serif" font-size="12" fill="#1C1917" font-weight="600">9:41</text>

  <!-- Header row -->
  <text x="20" y="96" font-family="Georgia,serif" font-size="26" fill="#1C1917" font-weight="700">My Projects</text>
  <text x="20" y="118" font-family="Inter,sans-serif" font-size="14" fill="#8A857C">2 designs</text>
  <!-- Profile avatar — teak -->
  <circle cx="358" cy="96" r="22" fill="#A06A3A"/>
  <text x="358" y="102" font-family="Inter,sans-serif" font-size="15" fill="#FFF" text-anchor="middle" font-weight="700">R</text>

  <!-- New design banner — teak light -->
  <rect x="20" y="140" width="350" height="72" rx="12" fill="#F5E8D4"/>
  <text x="40" y="166" font-family="Inter,sans-serif" font-size="15" fill="#6B4226" font-weight="700">Start a new design</text>
  <text x="40" y="186" font-family="Inter,sans-serif" font-size="13" fill="#8A857C">Draw rooms, pick finishes, get an estimate</text>
  <!-- Teak "+ New" button -->
  <rect x="290" y="152" width="64" height="36" rx="8" fill="#A06A3A"/>
  <text x="322" y="175" font-family="Inter,sans-serif" font-size="13" fill="#FFF" text-anchor="middle" font-weight="700">+ New</text>

  <!-- Card 1 — white surface, warm border -->
  <rect x="20" y="232" width="350" height="90" rx="12" fill="#FFFFFF" stroke="#E5E0D8" stroke-width="1"/>
  <rect x="36" y="250" width="58" height="58" rx="10" fill="#F5EDD8"/>
  <text x="65" y="284" font-size="26" text-anchor="middle">🏡</text>
  <text x="110" y="266" font-family="Inter,sans-serif" font-size="15" fill="#1C1917" font-weight="700">Sharma Residence</text>
  <!-- Status pill — warm green -->
  <rect x="260" y="253" width="44" height="18" rx="5" fill="#D4EDE120"/>
  <text x="282" y="265" font-family="Inter,sans-serif" font-size="10" fill="#2D7A4F" text-anchor="middle" font-weight="700">SAVED</text>
  <text x="110" y="288" font-family="Inter,sans-serif" font-size="13" fill="#8A857C">Mumbai  ·  2 floors</text>
  <text x="110" y="306" font-family="Inter,sans-serif" font-size="12" fill="#C4C0BA">Updated 15 Feb</text>
  <text x="356" y="285" font-family="Inter,sans-serif" font-size="22" fill="#C4C0BA">›</text>

  <!-- Card 2 -->
  <rect x="20" y="334" width="350" height="90" rx="12" fill="#FFFFFF" stroke="#E5E0D8" stroke-width="1"/>
  <rect x="36" y="352" width="58" height="58" rx="10" fill="#F5EDD8"/>
  <text x="65" y="386" font-size="26" text-anchor="middle">🏠</text>
  <text x="110" y="368" font-family="Inter,sans-serif" font-size="15" fill="#1C1917" font-weight="700">Weekend Home — Lonavala</text>
  <!-- Draft pill -->
  <rect x="298" y="355" width="44" height="18" rx="5" fill="#FDF0DC"/>
  <text x="320" y="367" font-family="Inter,sans-serif" font-size="10" fill="#D97706" text-anchor="middle" font-weight="700">DRAFT</text>
  <text x="110" y="390" font-family="Inter,sans-serif" font-size="13" fill="#8A857C">Pune  ·  1 floor</text>
  <text x="110" y="408" font-family="Inter,sans-serif" font-size="12" fill="#C4C0BA">Updated 10 Mar</text>
  <text x="356" y="387" font-family="Inter,sans-serif" font-size="22" fill="#C4C0BA">›</text>

  <!-- Hint -->
  <text x="195" y="560" font-family="Inter,sans-serif" font-size="14" fill="#C4C0BA" text-anchor="middle">Tap a design to open the canvas</text>

  <!-- Bottom nav — warm surface -->
  <rect x="0" y="780" width="390" height="64" fill="#FFFFFF" stroke="#E5E0D8" stroke-width="1"/>
  <text x="78"  y="818" font-family="Inter,sans-serif" font-size="22" text-anchor="middle">🏠</text>
  <text x="195" y="818" font-family="Inter,sans-serif" font-size="22" text-anchor="middle">✏️</text>
  <text x="312" y="818" font-family="Inter,sans-serif" font-size="22" text-anchor="middle">👤</text>
  <!-- Active dot — teak -->
  <circle cx="78" cy="790" r="3" fill="#A06A3A"/>
  <rect x="155" y="836" width="80" height="4" rx="2" fill="#1C1917" opacity="0.15"/>
</svg>
