<svg xmlns="http://www.w3.org/2000/svg" viewBox="0 0 390 844" width="390" height="844">
  <!-- Dark toolbar -->
  <rect width="390" height="844" fill="#FBFAF7"/>
  <rect width="390" height="52" fill="#2A2825"/>
  <text x="20" y="58" font-family="Inter,sans-serif" font-size="12" fill="#FBFAF7" font-weight="600">9:41</text>
  <text x="20" y="34" font-family="Inter,sans-serif" font-size="22" fill="#FBFAF7">‹</text>
  <text x="195" y="34" font-family="Inter,sans-serif" font-size="15" fill="#FBFAF7" font-weight="600" text-anchor="middle">Sharma Residence</text>
  <text x="370" y="34" font-family="Inter,sans-serif" font-size="22" fill="#FBFAF7" text-anchor="end">⏱</text>
  <!-- Ruler H -->
  <rect x="0" y="52" width="390" height="36" fill="#F5F2EC" stroke="#C4C0BA" stroke-width="0.5"/>
  <!-- Ruler V -->
  <rect x="0" y="52" width="36" height="792" fill="#F5F2EC" stroke="#C4C0BA" stroke-width="0.5"/>
  <!-- Ruler labels H -->
  <text x="56" y="74" font-family="Inter,sans-serif" font-size="10" fill="#8A857C">10′</text>
  <text x="116" y="74" font-family="Inter,sans-serif" font-size="10" fill="#8A857C">20′</text>
  <text x="176" y="74" font-family="Inter,sans-serif" font-size="10" fill="#8A857C">30′</text>
  <text x="236" y="74" font-family="Inter,sans-serif" font-size="10" fill="#8A857C">40′</text>
  <text x="296" y="74" font-family="Inter,sans-serif" font-size="10" fill="#8A857C">50′</text>
  <!-- Ruler labels V -->
  <text x="4" y="112" font-family="Inter,sans-serif" font-size="10" fill="#8A857C">10′</text>
  <text x="4" y="172" font-family="Inter,sans-serif" font-size="10" fill="#8A857C">20′</text>
  <text x="4" y="232" font-family="Inter,sans-serif" font-size="10" fill="#8A857C">30′</text>
  <!-- Major grid lines -->
  <line x1="96" y1="88" x2="96" y2="844" stroke="rgba(42,40,37,0.15)" stroke-width="1"/>
  <line x1="156" y1="88" x2="156" y2="844" stroke="rgba(42,40,37,0.07)" stroke-width="0.5"/>
  <line x1="216" y1="88" x2="216" y2="844" stroke="rgba(42,40,37,0.15)" stroke-width="1"/>
  <line x1="276" y1="88" x2="276" y2="844" stroke="rgba(42,40,37,0.07)" stroke-width="0.5"/>
  <line x1="336" y1="88" x2="336" y2="844" stroke="rgba(42,40,37,0.15)" stroke-width="1"/>
  <line x1="36" y1="148" x2="390" y2="148" stroke="rgba(42,40,37,0.15)" stroke-width="1"/>
  <line x1="36" y1="208" x2="390" y2="208" stroke="rgba(42,40,37,0.07)" stroke-width="0.5"/>
  <line x1="36" y1="268" x2="390" y2="268" stroke="rgba(42,40,37,0.15)" stroke-width="1"/>
  <line x1="36" y1="328" x2="390" y2="328" stroke="rgba(42,40,37,0.07)" stroke-width="0.5"/>
  <line x1="36" y1="388" x2="390" y2="388" stroke="rgba(42,40,37,0.15)" stroke-width="1"/>
  <!-- Rooms -->
  <rect x="56" y="100" width="150" height="132" rx="0" fill="#C3D9F7" stroke="#1E6FD9" stroke-width="1.5"/>
  <text x="131" y="170" font-family="Inter,sans-serif" font-size="12" fill="#1E6FD9" text-anchor="middle" font-weight="600">Living Room</text>
  <text x="131" y="185" font-family="Inter,sans-serif" font-size="11" fill="#1E6FD9" text-anchor="middle">400 sqft</text>
  <rect x="206" y="100" width="84" height="132" rx="0" fill="#FEF3C7" stroke="#F39C12" stroke-width="1.5"/>
  <text x="248" y="170" font-family="Inter,sans-serif" font-size="11" fill="#D97706" text-anchor="middle" font-weight="600">Kitchen</text>
  <text x="248" y="185" font-family="Inter,sans-serif" font-size="10" fill="#D97706" text-anchor="middle">200 sqft</text>
  <rect x="56" y="232" width="126" height="100" rx="0" fill="#C3D9F7" stroke="#1E6FD9" stroke-width="1"/>
  <text x="119" y="285" font-family="Inter,sans-serif" font-size="11" fill="#1E6FD9" text-anchor="middle" font-weight="600">Bedroom</text>
  <rect x="182" y="232" width="60" height="100" rx="0" fill="#D4EDE1" stroke="#27AE60" stroke-width="1"/>
  <text x="212" y="285" font-family="Inter,sans-serif" font-size="10" fill="#27AE60" text-anchor="middle">Bath</text>
  <!-- Live estimate banner -->
  <rect x="0" y="756" width="390" height="88" fill="#2A2825"/>
  <text x="24" y="783" font-family="Inter,sans-serif" font-size="12" fill="#8A857C">Running estimate</text>
  <text x="24" y="810" font-family="Georgia,serif" font-size="24" fill="#FBFAF7" font-weight="600">₹45,29,953</text>
  <text x="24" y="830" font-family="Inter,sans-serif" font-size="12" fill="#8A857C">± 12% · Mumbai multiplier 1.25×</text>
  <rect x="286" y="762" width="88" height="36" rx="8" fill="#1E6FD9"/>
  <text x="330" y="785" font-family="Inter,sans-serif" font-size="12" fill="#FFF" text-anchor="middle" font-weight="600">VIEW IN 3D</text>
  <!-- Floor tabs -->
  <rect x="36" y="640" width="40" height="24" rx="4" fill="#1E6FD9"/>
  <text x="56" y="656" font-family="Inter,sans-serif" font-size="11" fill="#FFF" text-anchor="middle">G</text>
  <rect x="36" y="668" width="40" height="24" rx="4" fill="#F5F2EC" stroke="#C4C0BA" stroke-width="1"/>
  <text x="56" y="684" font-family="Inter,sans-serif" font-size="11" fill="#4A4744" text-anchor="middle">F1</text>
</svg>
