<svg xmlns="http://www.w3.org/2000/svg" viewBox="0 0 390 844" width="390" height="844">
  <rect width="390" height="844" fill="#FBFAF7"/>
  <rect width="390" height="52" fill="#2A2825"/>
  <text x="20" y="58" font-family="Inter,sans-serif" font-size="12" fill="#FBFAF7" font-weight="600">9:41</text>
  <text x="20" y="34" font-family="Inter,sans-serif" font-size="22" fill="#FBFAF7">‹</text>
  <text x="195" y="34" font-family="Inter,sans-serif" font-size="15" fill="#FBFAF7" font-weight="600" text-anchor="middle">Living Room Finishes</text>
  <!-- Sheet handle -->
  <rect x="175" y="64" width="40" height="4" rx="2" fill="#C4C0BA"/>
  <!-- Section: Floor Finish -->
  <text x="24" y="100" font-family="Inter,sans-serif" font-size="13" fill="#4A4744" font-weight="600">FLOOR</text>
  <!-- Tile cards row -->
  <rect x="24" y="110" width="96" height="80" rx="10" fill="#FFFFFF" stroke="#1E6FD9" stroke-width="2"/>
  <rect x="24" y="110" width="96" height="54" rx="10" fill="#E8E0D0"/>
  <text x="72" y="200" font-family="Inter,sans-serif" font-size="11" fill="#2A2825" text-anchor="middle" font-weight="600">Vitrified Tile</text>
  <circle cx="96" cy="118" r="8" fill="#1E6FD9"/>
  <text x="96" y="123" font-family="Inter,sans-serif" font-size="9" fill="#FFF" text-anchor="middle">✓</text>

  <rect x="130" y="110" width="96" height="80" rx="10" fill="#FFFFFF" stroke="#E8E2D7" stroke-width="1"/>
  <rect x="130" y="110" width="96" height="54" rx="10" fill="#F0EBE0"/>
  <text x="178" y="200" font-family="Inter,sans-serif" font-size="11" fill="#2A2825" text-anchor="middle">Italian Marble</text>

  <rect x="236" y="110" width="96" height="80" rx="10" fill="#FFFFFF" stroke="#E8E2D7" stroke-width="1"/>
  <rect x="236" y="110" width="96" height="54" rx="10" fill="#D4C5B0"/>
  <text x="284" y="200" font-family="Inter,sans-serif" font-size="11" fill="#2A2825" text-anchor="middle">Granite</text>
  <!-- Section: Wall Finish -->
  <text x="24" y="226" font-family="Inter,sans-serif" font-size="13" fill="#4A4744" font-weight="600">WALLS</text>
  <rect x="24" y="236" width="96" height="80" rx="10" fill="#FFFFFF" stroke="#E8E2D7" stroke-width="1"/>
  <rect x="24" y="236" width="96" height="54" rx="10" fill="#F0ECE6"/>
  <text x="72" y="326" font-family="Inter,sans-serif" font-size="11" fill="#2A2825" text-anchor="middle">Plaster &amp; Paint</text>

  <rect x="130" y="236" width="96" height="80" rx="10" fill="#FFFFFF" stroke="#1E6FD9" stroke-width="2"/>
  <rect x="130" y="236" width="96" height="54" rx="10" fill="#8B6914" opacity="0.4"/>
  <text x="178" y="326" font-family="Inter,sans-serif" font-size="11" fill="#2A2825" text-anchor="middle" font-weight="600">Teak Panel</text>
  <circle cx="202" cy="244" r="8" fill="#1E6FD9"/>
  <text x="202" y="249" font-family="Inter,sans-serif" font-size="9" fill="#FFF" text-anchor="middle">✓</text>

  <rect x="236" y="236" width="96" height="80" rx="10" fill="#FFFFFF" stroke="#E8E2D7" stroke-width="1"/>
  <rect x="236" y="236" width="96" height="54" rx="10" fill="#EADFC8"/>
  <text x="284" y="326" font-family="Inter,sans-serif" font-size="11" fill="#2A2825" text-anchor="middle">Wallpaper</text>
  <!-- Section: Paint -->
  <text x="24" y="352" font-family="Inter,sans-serif" font-size="13" fill="#4A4744" font-weight="600">PAINT COLOUR</text>
  <circle cx="48" cy="382" r="20" fill="#FBFAF7" stroke="#E8E2D7" stroke-width="1.5"/>
  <circle cx="96" cy="382" r="20" fill="#EDE8DE" stroke="#E8E2D7" stroke-width="1.5"/>
  <circle cx="144" cy="382" r="20" fill="#C3D9F7" stroke="#1E6FD9" stroke-width="2"/>
  <circle cx="192" cy="382" r="20" fill="#FEF3C7"/>
  <circle cx="240" cy="382" r="20" fill="#D4EDE1"/>
  <circle cx="288" cy="382" r="20" fill="#F3E8FF"/>
  <text x="144" y="416" font-family="Inter,sans-serif" font-size="11" fill="#1E6FD9" text-anchor="middle" font-weight="600">Selected</text>
  <!-- Cost impact footer -->
  <rect x="0" y="720" width="390" height="124" fill="#2A2825" rx="0"/>
  <text x="24" y="752" font-family="Inter,sans-serif" font-size="13" fill="#8A857C">Cost impact of selections</text>
  <text x="24" y="782" font-family="Georgia,serif" font-size="22" fill="#FBFAF7" font-weight="600">+₹3,24,000</text>
  <text x="24" y="804" font-family="Inter,sans-serif" font-size="13" fill="#8A857C">vs. standard finish baseline</text>
  <rect x="258" y="730" width="108" height="44" rx="10" fill="#1E6FD9"/>
  <text x="312" y="757" font-family="Inter,sans-serif" font-size="14" fill="#FFF" text-anchor="middle" font-weight="600">Apply</text>
  <rect x="155" y="836" width="80" height="4" rx="2" fill="#FBFAF7" opacity="0.15"/>
</svg>
