<svg xmlns="http://www.w3.org/2000/svg" viewBox="0 0 390 844" width="390" height="844">
  <rect width="390" height="844" fill="#FBFAF7"/>
  <rect width="390" height="52" fill="#2A2825"/>
  <text x="20" y="58" font-family="Inter,sans-serif" font-size="12" fill="#FBFAF7" font-weight="600">9:41</text>
  <text x="20" y="34" font-family="Inter,sans-serif" font-size="22" fill="#FBFAF7">‹</text>
  <text x="195" y="34" font-family="Inter,sans-serif" font-size="15" fill="#FBFAF7" font-weight="600" text-anchor="middle">Project Summary</text>
  <text x="370" y="34" font-family="Inter,sans-serif" font-size="22" fill="#FBFAF7" text-anchor="end">⬆</text>
  <!-- Project name -->
  <text x="24" y="96" font-family="Georgia,serif" font-size="22" fill="#2A2825" font-weight="600">Sharma Residence</text>
  <text x="24" y="118" font-family="Inter,sans-serif" font-size="14" fill="#8A857C">Mumbai  ·  Full House  ·  2 floors  ·  1070 sqft</text>
  <!-- Grand Total card -->
  <rect x="24" y="136" width="342" height="88" rx="14" fill="#1E6FD9"/>
  <text x="44" y="167" font-family="Inter,sans-serif" font-size="13" fill="rgba(255,255,255,0.7)">Grand Total (Indicative — MVP pricing)</text>
  <text x="44" y="200" font-family="Georgia,serif" font-size="32" fill="#FFFFFF" font-weight="700">₹45,29,953</text>
  <text x="316" y="200" font-family="Inter,sans-serif" font-size="12" fill="rgba(255,255,255,0.7)" text-anchor="end">± 12%</text>
  <!-- Breakdown rows -->
  <text x="24" y="258" font-family="Inter,sans-serif" font-size="13" fill="#4A4744" font-weight="600">BREAKDOWN</text>
  <!-- Materials -->
  <rect x="24" y="268" width="342" height="56" rx="10" fill="#FFFFFF" stroke="#E8E2D7" stroke-width="1"/>
  <rect x="40" y="282" width="28" height="28" rx="6" fill="#EBF2FC"/>
  <text x="54" y="301" font-size="14" text-anchor="middle">🧱</text>
  <text x="80" y="295" font-family="Inter,sans-serif" font-size="15" fill="#2A2825" font-weight="600">Materials &amp; Fixtures</text>
  <text x="80" y="313" font-family="Inter,sans-serif" font-size="13" fill="#8A857C">Structural, flooring, finishes</text>
  <text x="354" y="303" font-family="Georgia,serif" font-size="16" fill="#2A2825" text-anchor="end" font-weight="600">₹23,11,200</text>
  <!-- Labour -->
  <rect x="24" y="336" width="342" height="56" rx="10" fill="#FFFFFF" stroke="#E8E2D7" stroke-width="1"/>
  <rect x="40" y="350" width="28" height="28" rx="6" fill="#D4EDE1"/>
  <text x="54" y="369" font-size="14" text-anchor="middle">👷</text>
  <text x="80" y="363" font-family="Inter,sans-serif" font-size="15" fill="#2A2825" font-weight="600">Labour (MVP: 40% of materials)</text>
  <text x="80" y="381" font-family="Inter,sans-serif" font-size="13" fill="#8A857C">Flat multiplier — Phase 2 adds per-trade</text>
  <text x="354" y="371" font-family="Georgia,serif" font-size="16" fill="#2A2825" text-anchor="end" font-weight="600">₹9,24,480</text>
  <!-- Regional -->
  <rect x="24" y="404" width="342" height="56" rx="10" fill="#FFFFFF" stroke="#E8E2D7" stroke-width="1"/>
  <rect x="40" y="418" width="28" height="28" rx="6" fill="#FEF3C7"/>
  <text x="54" y="437" font-size="14" text-anchor="middle">📍</text>
  <text x="80" y="431" font-family="Inter,sans-serif" font-size="15" fill="#2A2825" font-weight="600">Mumbai Regional Premium</text>
  <text x="80" y="449" font-family="Inter,sans-serif" font-size="13" fill="#8A857C">1.25× Tier 1 multiplier applied</text>
  <text x="354" y="439" font-family="Georgia,serif" font-size="16" fill="#A06A3A" text-anchor="end" font-weight="600">+25%</text>
  <!-- Overhead -->
  <rect x="24" y="472" width="342" height="56" rx="10" fill="#FFFFFF" stroke="#E8E2D7" stroke-width="1"/>
  <rect x="40" y="486" width="28" height="28" rx="6" fill="#F3E8FF"/>
  <text x="54" y="505" font-size="14" text-anchor="middle">📋</text>
  <text x="80" y="499" font-family="Inter,sans-serif" font-size="15" fill="#2A2825" font-weight="600">Overhead &amp; Contingency</text>
  <text x="80" y="517" font-family="Inter,sans-serif" font-size="13" fill="#8A857C">12% overhead</text>
  <text x="354" y="507" font-family="Georgia,serif" font-size="16" fill="#2A2825" text-anchor="end" font-weight="600">₹3,88,282</text>
  <!-- Confidence band note -->
  <rect x="24" y="548" width="342" height="40" rx="8" fill="#FEF3C710" stroke="#F39C1240" stroke-width="1"/>
  <text x="195" y="572" font-family="Inter,sans-serif" font-size="12" fill="#8A857C" text-anchor="middle">Confidence band: ₹39.9L – ₹51.1L  (± 12%)</text>
  <!-- Actions -->
  <rect x="24" y="620" width="342" height="52" rx="12" fill="#1E6FD9"/>
  <text x="195" y="651" font-family="Inter,sans-serif" font-size="16" fill="#FFF" font-weight="600" text-anchor="middle">Export PDF</text>
  <rect x="24" y="684" width="342" height="52" rx="12" fill="transparent" stroke="#1E6FD9" stroke-width="1.5"/>
  <text x="195" y="715" font-family="Inter,sans-serif" font-size="16" fill="#1E6FD9" font-weight="600" text-anchor="middle">Share Link</text>
  <rect x="155" y="828" width="80" height="4" rx="2" fill="#2A2825" opacity="0.2"/>
</svg>
