<svg xmlns="http://www.w3.org/2000/svg" viewBox="0 0 390 844" width="390" height="844">
  <rect width="390" height="844" fill="#FBFAF7"/>
  <rect width="390" height="52" fill="#2A2825"/>
  <text x="20" y="58" font-family="Inter,sans-serif" font-size="12" fill="#FBFAF7" font-weight="600">9:41</text>
  <text x="20" y="34" font-family="Inter,sans-serif" font-size="22" fill="#FBFAF7">‹</text>
  <text x="195" y="34" font-family="Inter,sans-serif" font-size="15" fill="#FBFAF7" font-weight="600" text-anchor="middle">Layout Generator</text>
  <!-- Parameters card -->
  <rect x="24" y="68" width="342" height="200" rx="14" fill="#FFFFFF" stroke="#E8E2D7" stroke-width="1"/>
  <text x="40" y="96" font-family="Inter,sans-serif" font-size="13" fill="#4A4744" font-weight="600">PLOT SIZE</text>
  <!-- Sqft slider -->
  <text x="40" y="124" font-family="Inter,sans-serif" font-size="14" fill="#2A2825">Total area: <tspan font-weight="700">2,500 sqft</tspan></text>
  <rect x="40" y="134" width="306" height="4" rx="2" fill="#E8E2D7"/>
  <rect x="40" y="134" width="192" height="4" rx="2" fill="#1E6FD9"/>
  <circle cx="232" cy="136" r="8" fill="#1E6FD9" stroke="#FFF" stroke-width="2"/>
  <!-- Bedrooms -->
  <text x="40" y="164" font-family="Inter,sans-serif" font-size="13" fill="#4A4744" font-weight="600">BEDROOMS</text>
  <rect x="40" y="172" width="44" height="28" rx="8" fill="#E8E2D7"/>
  <text x="62" y="191" font-family="Inter,sans-serif" font-size="14" fill="#4A4744" text-anchor="middle">2</text>
  <rect x="92" y="172" width="44" height="28" rx="8" fill="#1E6FD9"/>
  <text x="114" y="191" font-family="Inter,sans-serif" font-size="14" fill="#FFF" text-anchor="middle">3</text>
  <rect x="144" y="172" width="44" height="28" rx="8" fill="#E8E2D7"/>
  <text x="166" y="191" font-family="Inter,sans-serif" font-size="14" fill="#4A4744" text-anchor="middle">4</text>
  <!-- Toggles -->
  <text x="40" y="220" font-family="Inter,sans-serif" font-size="14" fill="#2A2825">Maximise Natural Light</text>
  <rect x="296" y="208" width="44" height="24" rx="12" fill="#1E6FD9"/>
  <circle cx="328" cy="220" r="10" fill="#FFF"/>
  <text x="40" y="248" font-family="Inter,sans-serif" font-size="14" fill="#2A2825">Open Plan Layout</text>
  <rect x="296" y="236" width="44" height="24" rx="12" fill="#E8E2D7"/>
  <circle cx="308" cy="248" r="10" fill="#FFF"/>
  <!-- Generate button -->
  <rect x="24" y="284" width="342" height="52" rx="12" fill="#1E6FD9"/>
  <text x="195" y="315" font-family="Inter,sans-serif" font-size="16" fill="#FFF" font-weight="600" text-anchor="middle">✦  Generate Layouts</text>
  <!-- Results -->
  <text x="24" y="366" font-family="Inter,sans-serif" font-size="14" fill="#4A4744" font-weight="600">3 candidate layouts</text>
  <!-- Layout card 1 -->
  <rect x="24" y="380" width="342" height="128" rx="12" fill="#FFFFFF" stroke="#1E6FD9" stroke-width="1.5"/>
  <text x="40" y="402" font-family="Inter,sans-serif" font-size="13" fill="#1E6FD9" font-weight="700">Layout A — Score 94%</text>
  <!-- Mini floor plan sketch -->
  <rect x="40" y="410" width="120" height="80" rx="4" fill="#EBF2FC"/>
  <rect x="44" y="414" width="50" height="36" rx="2" fill="#C3D9F7" stroke="#1E6FD9" stroke-width="0.5"/>
  <rect x="98" y="414" width="58" height="36" rx="2" fill="#FEF3C7" stroke="#F39C12" stroke-width="0.5"/>
  <rect x="44" y="454" width="36" height="32" rx="2" fill="#D4EDE1" stroke="#27AE60" stroke-width="0.5"/>
  <rect x="84" y="454" width="72" height="32" rx="2" fill="#C3D9F7" stroke="#1E6FD9" stroke-width="0.5"/>
  <text x="174" y="438" font-family="Inter,sans-serif" font-size="11" fill="#8A857C">3 Bed · 2 Bath</text>
  <text x="174" y="454" font-family="Inter,sans-serif" font-size="11" fill="#8A857C">Open-plan kitchen</text>
  <text x="174" y="470" font-family="Inter,sans-serif" font-size="11" fill="#8A857C">South-facing living</text>
  <rect x="252" y="476" width="98" height="28" rx="8" fill="#1E6FD9"/>
  <text x="301" y="494" font-family="Inter,sans-serif" font-size="12" fill="#FFF" text-anchor="middle" font-weight="600">Use Layout</text>
  <!-- Layout card 2 -->
  <rect x="24" y="520" width="342" height="100" rx="12" fill="#FFFFFF" stroke="#E8E2D7" stroke-width="1"/>
  <text x="40" y="542" font-family="Inter,sans-serif" font-size="13" fill="#4A4744" font-weight="600">Layout B — Score 87%</text>
  <rect x="40" y="550" width="120" height="56" rx="4" fill="#F5F2EC"/>
  <rect x="44" y="554" width="56" height="48" rx="2" fill="#C3D9F7" stroke="#8AB8E8" stroke-width="0.5"/>
  <rect x="104" y="554" width="52" height="48" rx="2" fill="#FEF3C7" stroke="#F0C040" stroke-width="0.5"/>
  <text x="174" y="570" font-family="Inter,sans-serif" font-size="11" fill="#8A857C">3 Bed · 2.5 Bath</text>
  <text x="174" y="586" font-family="Inter,sans-serif" font-size="11" fill="#8A857C">Formal dining room</text>
  <!-- Layout card 3 -->
  <rect x="24" y="632" width="342" height="100" rx="12" fill="#FFFFFF" stroke="#E8E2D7" stroke-width="1"/>
  <text x="40" y="654" font-family="Inter,sans-serif" font-size="13" fill="#4A4744" font-weight="600">Layout C — Score 81%</text>
  <rect x="40" y="662" width="120" height="56" rx="4" fill="#F5F2EC"/>
  <rect x="44" y="666" width="36" height="48" rx="2" fill="#D4EDE1" stroke="#60B080" stroke-width="0.5"/>
  <rect x="84" y="666" width="72" height="48" rx="2" fill="#C3D9F7" stroke="#8AB8E8" stroke-width="0.5"/>
  <text x="174" y="682" font-family="Inter,sans-serif" font-size="11" fill="#8A857C">4 Bed · 2 Bath</text>
  <text x="174" y="698" font-family="Inter,sans-serif" font-size="11" fill="#8A857C">Compact utility core</text>
  <rect x="155" y="828" width="80" height="4" rx="2" fill="#2A2825" opacity="0.2"/>
</svg>
