<svg xmlns="http://www.w3.org/2000/svg" viewBox="0 0 390 844" width="390" height="844">
  <rect width="390" height="844" fill="#F5F2EC"/>
  <!-- Toolbar -->
  <rect width="390" height="52" fill="#FFFFFF" stroke="#E5E0D8" stroke-width="0.5"/>
  <text x="20" y="34" font-family="Inter,sans-serif" font-size="12" fill="#1C1917" font-weight="600">9:41</text>
  <text x="20" y="34" font-family="Inter,sans-serif" font-size="24" fill="#1C1917">‹</text>
  <text x="195" y="33" font-family="Inter,sans-serif" font-size="15" fill="#1C1917" font-weight="700" text-anchor="middle">Project Detail</text>
  <text x="370" y="33" font-family="Inter,sans-serif" font-size="20" fill="#8A857C" text-anchor="end">⋯</text>

  <!-- Hero: dark floor plan thumbnail -->
  <rect x="0" y="52" width="390" height="196" fill="#3D3A37"/>
  <!-- Floor plan sketch in warm outlines -->
  <rect x="80"  y="84"  width="90"  height="72" rx="2" fill="none" stroke="#C4A882" stroke-width="1.5"/>
  <rect x="175" y="84"  width="96"  height="72" rx="2" fill="none" stroke="#FDF0DC" stroke-width="1.5"/>
  <rect x="80"  y="162" width="60"  height="54" rx="2" fill="none" stroke="#EAF0EA" stroke-width="1.5"/>
  <rect x="144" y="162" width="128" height="54" rx="2" fill="none" stroke="#C4A882" stroke-width="1.5"/>
  <text x="125" y="124" font-family="Inter,sans-serif" font-size="10" fill="#C4A882" text-anchor="middle">Living</text>
  <text x="223" y="124" font-family="Inter,sans-serif" font-size="10" fill="#D4A882" text-anchor="middle">Kitchen</text>

  <!-- Info card -->
  <rect x="16" y="232" width="358" height="108" rx="12" fill="#FFFFFF" stroke="#E5E0D8" stroke-width="1"/>
  <text x="32" y="262" font-family="Georgia,serif" font-size="20" fill="#1C1917" font-weight="700">Sharma Residence</text>
  <!-- Status pill — warm green -->
  <rect x="32" y="272" width="52" height="18" rx="5" fill="#D4EDE1"/>
  <text x="58" y="284" font-family="Inter,sans-serif" font-size="10" fill="#2D7A4F" text-anchor="middle" font-weight="700">SAVED</text>
  <text x="32" y="308" font-family="Inter,sans-serif" font-size="13" fill="#8A857C">Mumbai  ·  Full House</text>
  <text x="32" y="326" font-family="Inter,sans-serif" font-size="13" fill="#8A857C">2 floors  ·  1,070 sqft  ·  Updated 15 Feb</text>
  <text x="356" y="296" font-family="Inter,sans-serif" font-size="12" fill="#A06A3A" text-anchor="end">Edit ›</text>

  <!-- Stat cards -->
  <rect x="16"  y="356" width="172" height="76" rx="12" fill="#FFFFFF" stroke="#E5E0D8" stroke-width="1"/>
  <text x="32" y="382" font-family="Inter,sans-serif" font-size="12" fill="#8A857C">Rooms</text>
  <text x="32" y="412" font-family="Georgia,serif" font-size="30" fill="#1C1917" font-weight="700">6</text>
  <rect x="202" y="356" width="172" height="76" rx="12" fill="#FFFFFF" stroke="#E5E0D8" stroke-width="1"/>
  <text x="218" y="382" font-family="Inter,sans-serif" font-size="12" fill="#8A857C">Estimate</text>
  <text x="218" y="412" font-family="Georgia,serif" font-size="24" fill="#A06A3A" font-weight="700">₹45.3L</text>

  <!-- Investment breakdown -->
  <text x="24" y="462" font-family="Inter,sans-serif" font-size="11" fill="#8A857C" font-weight="700" letter-spacing="1.5">COST SUMMARY</text>
  <rect x="16" y="472" width="358" height="188" rx="12" fill="#FFFFFF" stroke="#E5E0D8" stroke-width="1"/>

  <text x="32" y="502" font-family="Inter,sans-serif" font-size="14" fill="#1C1917">Materials &amp; Fixtures</text>
  <text x="356" y="502" font-family="Inter,sans-serif" font-size="14" fill="#1C1917" text-anchor="end" font-weight="700">₹23.1L</text>
  <line x1="32" y1="514" x2="356" y2="514" stroke="#E5E0D8" stroke-width="0.5"/>

  <text x="32" y="538" font-family="Inter,sans-serif" font-size="14" fill="#1C1917">Labour (40%)</text>
  <text x="356" y="538" font-family="Inter,sans-serif" font-size="14" fill="#1C1917" text-anchor="end" font-weight="700">₹9.2L</text>
  <line x1="32" y1="550" x2="356" y2="550" stroke="#E5E0D8" stroke-width="0.5"/>

  <text x="32" y="574" font-family="Inter,sans-serif" font-size="14" fill="#1C1917">Mumbai Premium (1.25×)</text>
  <text x="356" y="574" font-family="Inter,sans-serif" font-size="14" fill="#A06A3A" text-anchor="end" font-weight="700">+25%</text>
  <line x1="32" y1="586" x2="356" y2="586" stroke="#E5E0D8" stroke-width="0.5"/>

  <text x="32" y="610" font-family="Inter,sans-serif" font-size="14" fill="#1C1917">Overhead (12%)</text>
  <text x="356" y="610" font-family="Inter,sans-serif" font-size="14" fill="#1C1917" text-anchor="end" font-weight="700">₹3.9L</text>
  <line x1="32" y1="622" x2="356" y2="622" stroke="#E5E0D8" stroke-width="0.5"/>

  <text x="32" y="648" font-family="Inter,sans-serif" font-size="16" fill="#1C1917" font-weight="700">Grand Total</text>
  <text x="356" y="648" font-family="Georgia,serif" font-size="20" fill="#A06A3A" text-anchor="end" font-weight="700">₹45.3L</text>

  <!-- Action buttons -->
  <rect x="16"  y="680" width="172" height="52" rx="6" fill="#1C1917"/>
  <text x="102" y="711" font-family="Inter,sans-serif" font-size="13" fill="#FFF" text-anchor="middle" font-weight="700" letter-spacing="0.5">EXPORT PDF</text>
  <rect x="202" y="680" width="172" height="52" rx="6" fill="transparent" stroke="#E5E0D8" stroke-width="1.5"/>
  <text x="288" y="711" font-family="Inter,sans-serif" font-size="13" fill="#1C1917" text-anchor="middle" font-weight="700">Share Link</text>

  <rect x="155" y="828" width="80" height="4" rx="2" fill="#1C1917" opacity="0.15"/>
</svg>
